<svg width="1200" height="1600" viewBox="0 0 1200 1600" fill="none" xmlns="http://www.w3.org/2000/svg">
  <defs>
    <style><![CDATA[
      @font-face { font-family: 'CardDisplay'; src: url('file:///System/Library/Fonts/SFNS.ttf'); }
      @font-face { font-family: 'CardBody'; src: url('file:///System/Library/Fonts/SFNS.ttf'); }
      @font-face { font-family: 'CardCJK'; src: url('file:///System/Library/Fonts/Hiragino%20Sans%20GB.ttc'); }
      @font-face { font-family: 'CardUnicode'; src: url('file:///System/Library/Fonts/Supplemental/Arial%20Unicode.ttf'); }
    ]]></style>
    <linearGradient id="bg" x1="0" y1="0" x2="1200" y2="1600" gradientUnits="userSpaceOnUse">
      <stop stop-color="#06080B"/>
      <stop offset="1" stop-color="#0B151C"/>
    </linearGradient>
    <radialGradient id="aura" cx="0" cy="0" r="1" gradientUnits="userSpaceOnUse" gradientTransform="translate(810 224) rotate(140) scale(418 312)">
      <stop stop-color="#B6E9F7" stop-opacity="0.88"/>
      <stop offset="1" stop-color="#59BFE0" stop-opacity="0"/>
    </radialGradient>
    <radialGradient id="auraBottom" cx="0" cy="0" r="1" gradientUnits="userSpaceOnUse" gradientTransform="translate(170 1400) rotate(-28) scale(356 248)">
      <stop stop-color="#59BFE0" stop-opacity="0.24"/>
      <stop offset="1" stop-color="#59BFE0" stop-opacity="0"/>
    </radialGradient>
    <linearGradient id="panel" x1="122" y1="86" x2="1082" y2="1506" gradientUnits="userSpaceOnUse">
      <stop stop-color="#344A55" stop-opacity="0.96"/>
      <stop offset="1" stop-color="#0E1C24" stop-opacity="0.98"/>
    </linearGradient>
    <linearGradient id="glass" x1="0" y1="0" x2="1" y2="1">
      <stop stop-color="#FFFFFF" stop-opacity="0.16"/>
      <stop offset="1" stop-color="#FFFFFF" stop-opacity="0.04"/>
    </linearGradient>
    <filter id="shadow" x="70" y="42" width="1060" height="1518" filterUnits="userSpaceOnUse" color-interpolation-filters="sRGB">
      <feFlood flood-opacity="0" result="BackgroundImageFix"/>
      <feColorMatrix in="SourceAlpha" type="matrix" values="0 0 0 0 0 0 0 0 0 0 0 0 0 0 0 0 0 0 127 0" result="hardAlpha"/>
      <feOffset dy="24"/>
      <feGaussianBlur stdDeviation="26"/>
      <feColorMatrix type="matrix" values="0 0 0 0 0.01 0 0 0 0 0.02 0 0 0 0 0.04 0 0 0 0.52 0"/>
      <feBlend mode="normal" in2="BackgroundImageFix" result="effect1_dropShadow_0_1"/>
      <feBlend mode="normal" in="SourceGraphic" in2="effect1_dropShadow_0_1" result="shape"/>
    </filter>
  </defs>

  <rect width="1200" height="1600" fill="url(#bg)"/>
  <circle cx="810" cy="224" r="300" fill="url(#aura)"/>
  <circle cx="170" cy="1400" r="240" fill="url(#auraBottom)"/>

  <g filter="url(#shadow)">
    <rect x="100" y="72" width="1000" height="1456" rx="44" fill="url(#panel)" stroke="rgba(78,169,199,0.48)" stroke-width="1.5"/>
    <rect x="101" y="73" width="998" height="1454" rx="43" stroke="rgba(255,255,255,0.06)"/>
  </g>

  <rect x="140" y="108" width="920" height="2" rx="1" fill="#B2E8F7" fill-opacity="0.88"/>
  <text x="160" y="194" fill="#FFFFFF" font-size="59" font-family="'CardDisplay', 'CardCJK', 'CardUnicode', 'SF Pro Display', 'PingFang SC', 'Helvetica Neue', Arial, sans-serif" font-weight="700">vibecoding.skill</text>

  <g>
    <rect x="426" y="248" width="348" height="84" rx="42" fill="url(#glass)" stroke="rgba(78,169,199,0.60)"/>
    <text x="600" y="304" fill="#FFFFFF" font-size="48" text-anchor="middle" font-family="'CardBody', 'CardCJK', 'CardUnicode', 'SF Pro Text', 'PingFang SC', 'Helvetica Neue', Arial, sans-serif" font-weight="600">境界</text>
  </g>

  <text x="600" y="612" fill="#FFFFFF" font-size="320" text-anchor="middle" font-family="'CardDisplay', 'CardCJK', 'CardUnicode', 'SF Pro Display', 'PingFang SC', 'Helvetica Neue', Arial, sans-serif" font-weight="700" letter-spacing="-10">金丹</text>
  <text x="600" y="772" fill="#F5F7FA" font-size="52" text-anchor="middle" font-family="'CardBody', 'CardCJK', 'CardUnicode', 'SF Pro Text', 'PingFang SC', 'Helvetica Neue', Arial, sans-serif" font-weight="600"><tspan x="600" dy="0">神识强大，可同时控制多个傀儡干活（常</tspan><tspan x="600" dy="69">见任务可以推进到多步完成）</tspan></text>

  <line x1="170" y1="982" x2="1030" y2="982" stroke="rgba(78,169,199,0.42)" stroke-width="1.5"/>

  <text x="170" y="1076" fill="rgba(159,226,245,0.90)" font-size="48" font-family="'CardBody', 'CardCJK', 'CardUnicode', 'SF Pro Text', 'PingFang SC', 'Helvetica Neue', Arial, sans-serif" font-weight="500">宗门和法宝</text>
  <text x="170" y="1158" fill="#FFFFFF" font-size="63" font-family="'CardDisplay', 'CardCJK', 'CardUnicode', 'SF Pro Display', 'PingFang SC', 'Helvetica Neue', Arial, sans-serif" font-weight="650">Codex · gpt-5.4</text>

  <line x1="170" y1="1224" x2="1030" y2="1224" stroke="rgba(78,169,199,0.28)"/>

  <text x="156" y="1270" fill="rgba(159,226,245,0.92)" font-size="48" font-family="'CardBody', 'CardCJK', 'CardUnicode', 'SF Pro Text', 'PingFang SC', 'Helvetica Neue', Arial, sans-serif" font-weight="600">十六曜星图 · 奎宿</text><ellipse cx="346.4" cy="1403.3" rx="190.4" ry="94.0" fill="rgba(89,191,224,0.08)"/><ellipse cx="280.2" cy="1429.6" rx="91.1" ry="41.4" fill="rgba(159,226,245,0.05)"/><polyline points="189.1,1433.4 222.2,1403.3 271.9,1377.0 329.9,1354.4 396.1,1339.4 470.6,1331.8 528.6,1350.6 503.8,1380.7 454.1,1403.3 487.2,1429.6 536.9,1455.9 454.1,1463.4 379.6,1448.4 313.3,1463.4 238.8,1478.5 197.4,1459.7" fill="none" stroke="rgba(89,191,224,0.22)" stroke-width="4.5" stroke-linecap="round" stroke-linejoin="round" stroke-dasharray="3 14"/><polyline points="189.1,1433.4 222.2,1403.3 271.9,1377.0 329.9,1354.4 396.1,1339.4 470.6,1331.8 528.6,1350.6 503.8,1380.7 454.1,1403.3 487.2,1429.6 536.9,1455.9 454.1,1463.4 379.6,1448.4 313.3,1463.4 238.8,1478.5 197.4,1459.7" fill="none" stroke="rgba(78,169,199,0.64)" stroke-width="2" stroke-linecap="round" stroke-linejoin="round" stroke-dasharray="7 9"/><circle cx="189.1" cy="1433.4" r="13.5" fill="rgba(159,226,245,0.30)"/><circle cx="189.1" cy="1433.4" r="9.7" fill="none" stroke="rgba(159,226,245,0.48)" stroke-width="0.8"/><circle cx="189.1" cy="1433.4" r="7.5" fill="rgba(255,255,255,1.00)"/><circle cx="222.2" cy="1403.3" r="13.5" fill="rgba(159,226,245,0.30)"/><circle cx="222.2" cy="1403.3" r="9.7" fill="none" stroke="rgba(159,226,245,0.48)" stroke-width="0.8"/><circle cx="222.2" cy="1403.3" r="7.5" fill="rgba(255,255,255,1.00)"/><circle cx="271.9" cy="1377.0" r="10.1" fill="rgba(159,226,245,0.08)"/><circle cx="271.9" cy="1377.0" r="4.0" fill="rgba(255,255,255,0.42)"/><circle cx="329.9" cy="1354.4" r="12.3" fill="rgba(159,226,245,0.22)"/><circle cx="329.9" cy="1354.4" r="8.6" fill="none" stroke="rgba(159,226,245,0.35)" stroke-width="0.8"/><circle cx="329.9" cy="1354.4" r="6.3" fill="rgba(255,255,255,0.72)"/><circle cx="396.1" cy="1339.4" r="10.1" fill="rgba(159,226,245,0.08)"/><circle cx="396.1" cy="1339.4" r="4.0" fill="rgba(255,255,255,0.42)"/><circle cx="470.6" cy="1331.8" r="8.9" fill="rgba(159,226,245,0.04)"/><circle cx="470.6" cy="1331.8" r="2.9" fill="rgba(255,255,255,0.42)"/><circle cx="528.6" cy="1350.6" r="11.2" fill="rgba(159,226,245,0.14)"/><circle cx="528.6" cy="1350.6" r="5.2" fill="rgba(255,255,255,0.48)"/><circle cx="503.8" cy="1380.7" r="8.9" fill="rgba(159,226,245,0.04)"/><circle cx="503.8" cy="1380.7" r="2.9" fill="rgba(255,255,255,0.42)"/><circle cx="454.1" cy="1403.3" r="10.1" fill="rgba(159,226,245,0.08)"/><circle cx="454.1" cy="1403.3" r="4.0" fill="rgba(255,255,255,0.42)"/><circle cx="487.2" cy="1429.6" r="8.9" fill="rgba(159,226,245,0.04)"/><circle cx="487.2" cy="1429.6" r="2.9" fill="rgba(255,255,255,0.42)"/><circle cx="536.9" cy="1455.9" r="13.5" fill="rgba(159,226,245,0.30)"/><circle cx="536.9" cy="1455.9" r="9.7" fill="none" stroke="rgba(159,226,245,0.48)" stroke-width="0.8"/><circle cx="536.9" cy="1455.9" r="7.5" fill="rgba(255,255,255,1.00)"/><circle cx="454.1" cy="1463.4" r="11.2" fill="rgba(159,226,245,0.14)"/><circle cx="454.1" cy="1463.4" r="5.2" fill="rgba(255,255,255,0.48)"/><circle cx="379.6" cy="1448.4" r="8.9" fill="rgba(159,226,245,0.04)"/><circle cx="379.6" cy="1448.4" r="2.9" fill="rgba(255,255,255,0.42)"/><circle cx="313.3" cy="1463.4" r="10.1" fill="rgba(159,226,245,0.08)"/><circle cx="313.3" cy="1463.4" r="4.0" fill="rgba(255,255,255,0.42)"/><circle cx="238.8" cy="1478.5" r="8.9" fill="rgba(159,226,245,0.04)"/><circle cx="238.8" cy="1478.5" r="2.9" fill="rgba(255,255,255,0.42)"/><circle cx="197.4" cy="1459.7" r="8.9" fill="rgba(159,226,245,0.04)"/><circle cx="197.4" cy="1459.7" r="2.9" fill="rgba(255,255,255,0.42)"/>

  <text x="670" y="1272" fill="rgba(159,226,245,0.90)" font-size="48" font-family="'CardBody', 'CardCJK', 'CardUnicode', 'SF Pro Text', 'PingFang SC', 'Helvetica Neue', Arial, sans-serif" font-weight="500">道号</text>
  <text x="670" y="1350" fill="#FFFFFF" font-size="79" font-family="'CardDisplay', 'CardCJK', 'CardUnicode', 'SF Pro Display', 'PingFang SC', 'Helvetica Neue', Arial, sans-serif" font-weight="650">码奸</text>
  <text x="670" y="1424" fill="rgba(159,226,245,0.90)" font-size="48" font-family="'CardBody', 'CardCJK', 'CardUnicode', 'SF Pro Text', 'PingFang SC', 'Helvetica Neue', Arial, sans-serif" font-weight="500">出关时间</text>
  <text x="670" y="1488" fill="#FFFFFF" font-size="52" font-family="'CardBody', 'CardCJK', 'CardUnicode', 'SF Pro Text', 'PingFang SC', 'Helvetica Neue', Arial, sans-serif" font-weight="600">2026-04-14 05:06</text>

</svg>
