<svg width="1200" height="1600" viewBox="0 0 1200 1600" fill="none" xmlns="http://www.w3.org/2000/svg">
  <defs>
    <linearGradient id="bg" x1="86" y1="48" x2="1124" y2="1556" gradientUnits="userSpaceOnUse">
      <stop stop-color="#0E0A07"/>
      <stop offset="0.46" stop-color="#1D140D"/>
      <stop offset="1" stop-color="#090705"/>
    </linearGradient>
    <linearGradient id="paper" x1="194" y1="124" x2="1018" y2="1486" gradientUnits="userSpaceOnUse">
      <stop stop-color="#F8EFD8"/>
      <stop offset="0.45" stop-color="#E9D2A1"/>
      <stop offset="1" stop-color="#D3A45A"/>
    </linearGradient>
    <linearGradient id="ink" x1="292" y1="210" x2="812" y2="1428" gradientUnits="userSpaceOnUse">
      <stop stop-color="#6F3218"/>
      <stop offset="1" stop-color="#3E1D0E"/>
    </linearGradient>
    <radialGradient id="mist" cx="0" cy="0" r="1" gradientUnits="userSpaceOnUse" gradientTransform="translate(920 222) rotate(145) scale(314 224)">
      <stop stop-color="#E9C777" stop-opacity="0.2"/>
      <stop offset="1" stop-color="#E9C777" stop-opacity="0"/>
    </radialGradient>
    <filter id="shadow" x="118" y="92" width="964" height="1436" filterUnits="userSpaceOnUse" color-interpolation-filters="sRGB">
      <feFlood flood-opacity="0" result="BackgroundImageFix"/>
      <feColorMatrix in="SourceAlpha" type="matrix" values="0 0 0 0 0 0 0 0 0 0 0 0 0 0 0 0 0 0 127 0" result="hardAlpha"/>
      <feOffset dy="26"/>
      <feGaussianBlur stdDeviation="24"/>
      <feColorMatrix type="matrix" values="0 0 0 0 0.03 0 0 0 0 0.015 0 0 0 0 0.006 0 0 0 0.48 0"/>
      <feBlend mode="normal" in2="BackgroundImageFix" result="effect1_dropShadow_0_1"/>
      <feBlend mode="normal" in="SourceGraphic" in2="effect1_dropShadow_0_1" result="shape"/>
    </filter>
  </defs>

  <rect width="1200" height="1600" rx="48" fill="url(#bg)"/>
  <ellipse cx="920" cy="222" rx="252" ry="178" fill="url(#mist)"/>

  <g filter="url(#shadow)">
    <path d="M252 130H948C980 130 1006 156 1006 188V1412C1006 1446 980 1472 948 1472H252C220 1472 194 1446 194 1412V188C194 156 220 130 252 130Z" fill="url(#paper)"/>
    <path d="M252 150H948C968 150 988 168 988 188V1410C988 1430 968 1450 948 1450H252C230 1450 212 1430 212 1410V188C212 168 230 150 252 150Z" stroke="#FBF3E2" stroke-width="8"/>
    <rect x="236" y="174" width="728" height="1232" rx="28" stroke="#A56A2A" stroke-opacity="0.34" stroke-width="2" stroke-dasharray="10 10"/>
  </g>

  <text x="600" y="232" fill="url(#ink)" font-size="34" text-anchor="middle" font-family="PingFang SC, Hiragino Sans GB, Microsoft YaHei, serif" letter-spacing="4">画像</text>
  <text x="600" y="304" fill="url(#ink)" font-size="100" text-anchor="middle" font-family="STKaiti, KaiTi, serif">修仙画像</text>
  <text x="600" y="346" fill="#85512A" font-size="21" text-anchor="middle" font-family="PingFang SC, Hiragino Sans GB, Microsoft YaHei, serif" font-weight="400"><tspan x="600" dy="0">开始把自己的做法封成技法、模板、模块</tspan></text>
  
  <g>
    <rect x="238" y="398" width="338" height="52" rx="16" fill="#DDBB7A" fill-opacity="0.28" stroke="#A56A2A" stroke-opacity="0.24" stroke-width="1.5"/>
    <text x="256" y="430" fill="#6F4826" font-size="16" font-family="PingFang SC, Hiragino Sans GB, Microsoft YaHei, serif">道号</text>
    <text x="558" y="430" fill="#3E2211" font-size="18" text-anchor="end" font-family="PingFang SC, Hiragino Sans GB, Microsoft YaHei, serif">张道友</text>
  </g>
  
  <g>
    <rect x="624" y="398" width="338" height="52" rx="16" fill="#FFF7EA" fill-opacity="0.82" stroke="#A56A2A" stroke-opacity="0.24" stroke-width="1.5"/>
    <text x="642" y="430" fill="#6F4826" font-size="16" font-family="PingFang SC, Hiragino Sans GB, Microsoft YaHei, serif">生成时间</text>
    <text x="944" y="430" fill="#3E2211" font-size="18" text-anchor="end" font-family="PingFang SC, Hiragino Sans GB, Microsoft YaHei, serif">2026-04-09 12:08</text>
  </g>

  <g>
    <circle cx="600" cy="584" r="126" fill="#6A2E13" fill-opacity="0.05" stroke="#7F3415" stroke-width="3"/>
    <circle cx="600" cy="584" r="98" stroke="#8B3C19" stroke-opacity="0.28" stroke-width="2" stroke-dasharray="8 10"/>
    <text x="600" y="572" fill="#532410" font-size="92" text-anchor="middle" font-family="STKaiti, KaiTi, serif">金丹</text>
    <text x="600" y="620" fill="#6A3618" font-size="22" text-anchor="middle" font-family="PingFang SC, Hiragino Sans GB, Microsoft YaHei, serif" letter-spacing="5">当前境界</text>
  </g>

  <g>
    <rect x="214" y="732" width="772" height="292" rx="30" fill="#FFF7EA" fill-opacity="0.78" stroke="#A56A2A" stroke-opacity="0.24" stroke-width="2"/>
    <text x="600" y="800" fill="#8A562D" font-size="20" text-anchor="middle" font-family="PingFang SC, Hiragino Sans GB, Microsoft YaHei, serif" letter-spacing="4">命主判词</text>
    <text x="600" y="866" fill="#4C2412" font-size="28" text-anchor="middle" font-family="STKaiti, KaiTi, serif" font-weight="700"><tspan x="600" dy="0">此番观气，已至金丹之境，五脉均势 50/100。</tspan><tspan x="600" dy="38">同修合拍 85/100 最盛，收功松散 34/100 为关隘。</tspan><tspan x="600" dy="38">本卷 4 条对话，2 次分身，炼化 2,892 枚灵气。</tspan></text>
  </g>

  <g>
    <rect x="214" y="1060" width="772" height="228" rx="30" fill="#FFF6E4" fill-opacity="0.82" stroke="#A56A2A" stroke-opacity="0.22" stroke-width="2"/>
    <text x="600" y="1114" fill="#8A562D" font-size="20" text-anchor="middle" font-family="PingFang SC, Hiragino Sans GB, Microsoft YaHei, serif" letter-spacing="4">破境指引</text>
    <text x="600" y="1182" fill="#4F2812" font-size="28" text-anchor="middle" font-family="STKaiti, KaiTi, serif" font-weight="700"><tspan x="600" dy="0">每一轮收功时，都要求附上验证命令或可观察结</tspan><tspan x="600" dy="38">果。</tspan></text>
    <text x="600" y="1244" fill="#81502A" font-size="18" text-anchor="middle" font-family="PingFang SC, Hiragino Sans GB, Microsoft YaHei, serif">守住一条主线，再启下一轮炼化</text>
  </g>

  <line x1="320" y1="1382" x2="880" y2="1382" stroke="#A56A2A" stroke-opacity="0.18" stroke-width="2"/>
  <text x="600" y="1434" fill="#7A4B28" font-size="18" text-anchor="middle" font-family="PingFang SC, Hiragino Sans GB, Microsoft YaHei, serif">画像 · 命主当前气象与破境方向</text>

</svg>
